Coordinates
version=1
nRows=22
nColumns=24
inDegrees=yes

Units are S.I. units (second, meters, Newtons, ...)
Angles are in degrees.

endheader
time	pelvis_tilt	pelvis_list	pelvis_rotation	pelvis_tx	pelvis_ty	pelvis_tz	hip_flexion_r	hip_adduction_r	hip_rotation_r	knee_angle_r	ankle_angle_r	subtalar_angle_r	mtp_angle_r	hip_flexion_l	hip_adduction_l	hip_rotation_l	knee_angle_l	ankle_angle_l	subtalar_angle_l	mtp_angle_l	lumbar_extension	lumbar_bending	lumbar_rotation
      0.56700000	     -0.24086076	      0.44156171	      7.37419247	     -0.77080374	      0.96930022	      0.31730148	     27.30320868	     -0.36477190	     -4.09834834	     -1.29196934	      1.42230773	    -16.55078727	     -0.12047203	    -21.67126950	      1.15460373	      6.48952077	      0.77425976	     10.78511788	     -7.80277981	      0.85640798	     -2.54798538	      1.43899589	     -3.66237349
      0.57116667	     -0.35865324	      0.30375256	      7.45345285	     -0.76453395	      0.96812326	      0.31750408	     27.57970854	     -0.22951931	     -4.08013168	     -1.75917841	      1.26219316	    -17.15901730	     -0.17235547	    -21.79400435	      0.94941467	      6.22765757	      0.53201404	     10.95010611	     -7.34431576	      1.22881886	     -2.33134232	      1.59744983	     -3.77909425
      0.57533333	     -0.38591771	      0.13954062	      7.52603962	     -0.75821605	      0.96709773	      0.31765298	     27.78041916	     -0.06785145	     -4.17740766	     -2.31850516	      1.11692479	    -17.46501018	     -0.19233064	    -22.05238397	      0.71064236	      6.08714620	      0.37453396	     10.90030536	     -7.25431432	      1.34774504	     -2.25141722	      1.82546746	     -3.80163132
      0.57950000	     -0.45414758	     -0.01807091	      7.55545576	     -0.75187451	      0.96602996	      0.31795232	     27.99786359	      0.12523007	     -4.01337496	     -2.86396945	      0.81477254	    -18.29769787	     -0.24334009	    -22.21854175	      0.49389963	      5.77120225	      0.10565590	     11.04716920	     -6.82295719	      1.77733085	     -2.10904906	      2.00090521	     -3.92422827
      0.58366667	     -0.49966540	     -0.20623870	      7.61080178	     -0.74544099	      0.96503794	      0.31813411	     28.22811116	      0.31687977	     -4.11012827	     -3.53361350	      0.58034093	    -18.63174698	     -0.26267935	    -22.44869332	      0.23720918	      5.63752530	     -0.07277692	     10.97696466	     -6.72867725	      1.90797944	     -1.97978791	      2.25532201	     -3.93307710
      0.58783333	     -0.59162626	     -0.37587020	      7.61580301	     -0.73900601	      0.96401057	      0.31847526	     28.48364094	      0.53215228	     -3.93843348	     -4.18533317	      0.17158223	    -19.48166087	     -0.29901403	    -22.56703801	      0.02098424	      5.32209480	     -0.38910181	     11.09024759	     -6.34342079	      2.31014425	     -1.80088238	      2.44028620	     -4.01988435
      0.59200000	     -0.57965698	     -0.61576304	      7.61796248	     -0.73245210	      0.96315614	      0.31877262	     28.61385676	      0.82776691	     -3.85422701	     -4.84006216	     -0.22646068	    -20.22553000	     -0.38740243	    -22.82959861	     -0.27884620	      5.04989484	     -0.62790906	     11.06063329	     -6.14348691	      3.66624995	     -1.72198993	      2.76532452	     -3.99294964
      0.59616667	     -0.71038797	     -0.77567006	      7.62800743	     -0.72593320	      0.96216461	      0.31907414	     28.95470117	      1.01196720	     -3.84529934	     -5.65410542	     -0.64462476	    -20.76772282	     -0.41108915	    -22.89802253	     -0.47994004	      4.82753009	     -0.95810402	     10.99641776	     -5.87616947	      4.05608227	     -1.48408448	      2.94711173	     -4.07662984
      0.60033333	     -0.81627945	     -0.97406862	      7.62375001	     -0.71932940	      0.96124962	      0.31937363	     29.25284010	      1.24202489	     -3.85696188	     -6.44975364	     -1.17976469	    -21.22428069	     -0.42425715	    -23.00406540	     -0.71553138	      4.65865433	     -1.26529333	     10.93114440	     -5.76281619	      4.22594955	     -1.25797090	      3.19140057	     -4.07440135
      0.60450000	     -0.88969156	     -1.18103426	      7.60074917	     -0.71271224	      0.96042585	      0.31973848	     29.50205693	      1.50741848	     -3.78077286	     -7.24232406	     -1.70458068	    -21.93207310	     -0.43340660	    -23.09771621	     -0.95752799	      4.36368967	     -1.66602218	     10.85593991	     -5.53890949	      4.49373048	     -1.09519360	      3.44361359	     -4.09534526
      0.60866667	     -0.98448939	     -1.39724868	      7.56879027	     -0.70601546	      0.95962022	      0.32008545	     29.78437864	      1.77257755	     -3.78381088	     -8.07312776	     -2.28285718	    -22.41994332	     -0.44066973	    -23.19280318	     -1.20274042	      4.16731387	     -2.01893254	     10.72553095	     -5.40120549	      4.69630152	     -0.87011963	      3.71999361	     -4.08678671
      0.61283333	     -1.07447453	     -1.60993842	      7.52674801	     -0.69930282	      0.95887997	      0.32046401	     30.05388048	      2.04549696	     -3.74935848	     -8.91000440	     -2.86414288	    -22.99136299	     -0.44637882	    -23.25155765	     -1.43936114	      3.91482581	     -2.45466626	     10.57092188	     -5.24027805	      4.93071221	     -0.65735298	      3.99297244	     -4.08119856
      0.61700000	     -1.15236708	     -1.82242805	      7.47271993	     -0.69256736	      0.95821542	      0.32086550	     30.30849229	      2.32592420	     -3.71749364	     -9.75956461	     -3.44853822	    -23.52317631	     -0.45055352	    -23.30759722	     -1.67191996	      3.66670102	     -2.91580560	     10.38815562	     -5.11257974	      5.20406142	     -0.46539609	      4.26538148	     -4.06367740
      0.62116667	     -1.22097295	     -2.04569726	      7.41429230	     -0.68580952	      0.95762441	      0.32130785	     30.54669860	      2.62608494	     -3.67754038	    -10.61307779	     -3.99974672	    -24.11167357	     -0.45155807	    -23.34353821	     -1.91779064	      3.38024403	     -3.43252137	     10.15032242	     -4.96236860	      5.65164729	     -0.30627474	      4.53055287	     -4.04112897
      0.62533333	     -1.30991644	     -2.26013764	      7.34687645	     -0.67901486	      0.95707650	      0.32174360	     30.80821161	      2.91256946	     -3.65955733	    -11.48640226	     -4.55160599	    -24.57174879	     -0.44959719	    -23.34526119	     -2.14612138	      3.14318599	     -3.96748356	      9.86447907	     -4.86419709	      6.28421727	     -0.09687190	      4.80090608	     -4.00350840
      0.62950000	     -1.35797751	     -2.48804206	      7.25821151	     -0.67215325	      0.95663422	      0.32215950	     31.02933706	      3.21055666	     -3.72179392	    -12.37838112	     -5.05656997	    -24.65640640	     -0.45654847	    -23.41552907	     -2.37818707	      2.95454733	     -4.45230552	      9.48084682	     -4.91231872	      6.39620500	      0.07353037	      5.11038831	     -3.98171621
      0.63366667	     -1.46182873	     -2.68788154	      7.16989648	     -0.66534444	      0.95620341	      0.32264183	     31.29544923	      3.49074741	     -3.68406864	    -13.25582508	     -5.59189427	    -25.01471899	     -0.46562522	    -23.33615370	     -2.57908664	      2.71678429	     -5.11023772	      9.18736204	     -4.87655882	      6.74196500	      0.30040737	      5.35862534	     -3.91377240
      0.63783333	     -1.48503506	     -2.91230902	      7.07309027	     -0.65846068	      0.95594255	      0.32310934	     31.47698029	      3.79744201	     -3.72920707	    -14.15924845	     -5.96713064	    -25.13993530	     -0.47273376	    -23.37920578	     -2.80966015	      2.51452228	     -5.67821713	      8.68891023	     -4.89791172	      6.89499910	      0.42987800	      5.66013567	     -3.88932559
      0.64200000	     -1.52070346	     -3.12465958	      6.96958234	     -0.65161247	      0.95573979	      0.32364445	     31.65184143	      4.10842104	     -3.70245089	    -15.03019102	     -6.37006798	    -25.44730428	     -0.56527438	    -23.32091562	     -3.03012889	      2.22356552	     -6.40533877	      8.19608179	     -4.94082095	     12.03828616	      0.57790433	      5.93671405	     -3.83762771
      0.64616667	     -1.52948596	     -3.32549424	      6.85874600	     -0.64474422	      0.95564541	      0.32414964	     31.80082045	      4.40000640	     -3.73110515	    -15.92851729	     -6.66438239	    -25.48527906	     -0.57087032	    -23.30057296	     -3.23087963	      2.02080719	     -7.11594120	      7.65327600	     -5.02091660	     12.04961089	      0.69506252	      6.21651355	     -3.79602365
      0.65033333	     -1.50944306	     -3.52087540	      6.75558368	     -0.63791269	      0.95566573	      0.32468667	     31.90716071	      4.68969049	     -3.76420937	    -16.81273557	     -6.90609856	    -25.52061307	     -0.57561894	    -23.25865250	     -3.43361048	      1.82270618	     -7.91147059	      7.12160126	     -5.14216262	     12.06449561	      0.74518108	      6.45737135	     -3.76388326
      0.65450000	     -1.55147648	     -3.72110964	      6.62824486	     -0.63102946	      0.95568109	      0.32526156	     32.05722743	      4.99329690	     -3.74164097	    -17.66806887	     -7.10270569	    -25.54368473	     -0.58278475	    -23.13071885	     -3.62935935	      1.60852362	     -8.73486946	      6.46504921	     -5.20306706	     12.13145833	      0.90859872	      6.73896226	     -3.67926289
